<svg width="18" height="15" viewBox="0 0 18 15" fill="none" xmlns="http://www.w3.org/2000/svg">
<path d="M2.65909 5.70697e-09H15.3409C16.0201 -4.44655e-05 16.6736 0.259817 17.1673 0.726277C17.661 1.19274 17.9575 1.83043 17.9959 2.50855L18 2.65909V12.0682C18 12.7474 17.7402 13.4009 17.2737 13.8946C16.8073 14.3882 16.1696 14.6847 15.4915 14.7232L15.3409 14.7273H2.65909C1.97989 14.7273 1.32641 14.4675 0.83272 14.001C0.339028 13.5345 0.0425444 12.8968 0.00409101 12.2187L5.70697e-09 12.0682V2.65909C-4.44655e-05 1.97989 0.259817 1.32641 0.726277 0.83272C1.19274 0.339028 1.83043 0.0425444 2.50855 0.00409101L2.65909 5.70697e-09H15.3409H2.65909ZM16.7727 4.83136L9.28309 8.72591C9.21054 8.76361 9.13119 8.78643 9.0497 8.79303C8.96821 8.79964 8.88622 8.78989 8.80855 8.76436L8.71691 8.72591L1.22727 4.83136V12.0682C1.22729 12.4275 1.36241 12.7737 1.60583 13.038C1.84925 13.3024 2.18315 13.4655 2.54127 13.4951L2.65909 13.5H15.3409C15.7004 13.5 16.0467 13.3647 16.311 13.1211C16.5754 12.8776 16.7384 12.5434 16.7678 12.1852L16.7727 12.0682V4.83136ZM15.3409 1.22727H2.65909C2.29975 1.22729 1.95356 1.36241 1.68923 1.60583C1.42489 1.84925 1.26175 2.18315 1.23218 2.54127L1.22727 2.65909V3.44782L9 7.48964L16.7727 3.44782V2.65909C16.7727 2.29962 16.6375 1.95332 16.3939 1.68897C16.1503 1.42461 15.8162 1.26156 15.4579 1.23218L15.3409 1.22727Z" fill="#39476D"/>
</svg>
