<svg width="18" height="18" viewBox="0 0 18 18" fill="none" xmlns="http://www.w3.org/2000/svg">
<path d="M12.2134 1.55605e-07C11.31 -0.000207036 10.4191 0.211221 9.61208 0.617342C8.80509 1.02346 8.10445 1.61298 7.56629 2.33866C7.02813 3.06434 6.66743 3.906 6.51309 4.79619C6.35875 5.68638 6.41505 6.60035 6.6775 7.46486L0 14.1429V18H3.85686L10.5344 11.322C11.3301 11.5636 12.1685 11.6307 12.9926 11.5189C13.8166 11.4071 14.6069 11.1189 15.3095 10.674C16.0121 10.2291 16.6105 9.63802 17.064 8.94092C17.5175 8.24383 17.8154 7.45715 17.9374 6.6345C18.0594 5.81185 18.0026 4.97256 17.771 4.17384C17.5393 3.37512 17.1381 2.63574 16.5949 2.00607C16.0516 1.37641 15.379 0.871279 14.6229 0.525093C13.8668 0.178907 13.045 -0.000192712 12.2134 1.55605e-07ZM12.2134 10.2857C11.7708 10.2855 11.3307 10.2201 10.9072 10.0916L10.1699 9.86786L9.62543 10.4124L7.58065 12.4573L6.69421 11.5714L5.78528 12.4804L6.67172 13.3669L5.65222 14.3865L4.76579 13.5L3.85686 14.409L4.74329 15.2955L3.32461 16.7143H1.28562V14.6751L7.58643 8.37386L8.13154 7.82936L7.90784 7.092C7.63309 6.18621 7.65094 5.21684 7.95885 4.32178C8.26675 3.42672 8.84904 2.65155 9.62288 2.10653C10.3967 1.56152 11.3227 1.27441 12.2691 1.28605C13.2155 1.2977 14.1341 1.6075 14.8943 2.17139C15.6545 2.73528 16.2176 3.52454 16.5034 4.42691C16.7892 5.32927 16.7832 6.29879 16.4862 7.19755C16.1893 8.0963 15.6165 8.87853 14.8494 9.43296C14.0823 9.98739 13.1599 10.2858 12.2134 10.2857Z" fill="#39476D"/>
<path d="M13 6C13.5523 6 14 5.55228 14 5C14 4.44772 13.5523 4 13 4C12.4477 4 12 4.44772 12 5C12 5.55228 12.4477 6 13 6Z" fill="#39476D"/>
</svg>
