<svg width="18" height="20" viewBox="0 0 18 20" fill="none" xmlns="http://www.w3.org/2000/svg">
<path d="M9 9C9.9889 9 10.9556 8.73608 11.7778 8.24161C12.6001 7.74715 13.241 7.04434 13.6194 6.22208C13.9978 5.39981 14.0968 4.49501 13.9039 3.62209C13.711 2.74918 13.2348 1.94736 12.5355 1.31802C11.8363 0.688685 10.9454 0.260102 9.97545 0.0864682C9.00555 -0.0871652 8.00021 0.00194977 7.08658 0.342544C6.17295 0.683138 5.39206 1.25991 4.84265 1.99994C4.29324 2.73996 4 3.60999 4 4.5C4 5.69347 4.52678 6.83807 5.46447 7.68198C6.40215 8.52589 7.67392 9 9 9ZM9 1.28572C9.70636 1.28572 10.3969 1.47423 10.9842 1.82742C11.5715 2.18061 12.0293 2.68261 12.2996 3.26995C12.5699 3.85728 12.6406 4.50357 12.5028 5.12708C12.365 5.75059 12.0249 6.32332 11.5254 6.77284C11.0259 7.22237 10.3895 7.5285 9.69675 7.65252C9.00396 7.77655 8.28586 7.71289 7.63327 7.46961C6.98068 7.22633 6.4229 6.81435 6.03047 6.28576C5.63803 5.75718 5.42857 5.13573 5.42857 4.5C5.42857 3.64752 5.80485 2.82995 6.47462 2.22716C7.14439 1.62436 8.0528 1.28572 9 1.28572Z" fill="#39476D"/>
<path d="M17.633 14.4507C16.5228 13.3608 15.1849 12.4926 13.7011 11.8993C12.2173 11.306 10.6189 11 9.00345 11C7.38801 11 5.78955 11.306 4.30577 11.8993C2.822 12.4926 1.48409 13.3608 0.373847 14.4507C0.133141 14.6895 -0.000544784 15.0045 1.66867e-06 15.3317V18.714C1.66867e-06 19.055 0.14588 19.3821 0.405545 19.6233C0.665211 19.8645 1.01739 20 1.38461 20H16.6154C16.9826 20 17.3348 19.8645 17.5944 19.6233C17.8541 19.3821 18 19.055 18 18.714V15.3317C18.0024 15.0054 17.8712 14.6905 17.633 14.4507ZM16.6154 18.714H1.38461V15.3252C2.36577 14.3656 3.54689 13.6015 4.85609 13.0793C6.16529 12.5572 7.57519 12.2879 8.99998 12.2879C10.4248 12.2879 11.8347 12.5572 13.1439 13.0793C14.4531 13.6015 15.6342 14.3656 16.6154 15.3252V18.714Z" fill="#39476D"/>
</svg>
